<?xml version="1.0" encoding="utf-8"?>
<!-- Generator: Adobe Illustrator 21.0.0, SVG Export Plug-In . SVG Version: 6.00 Build 0)  -->
<svg version="1.1" id="Layer_1" xmlns="http://www.w3.org/2000/svg" xmlns:xlink="http://www.w3.org/1999/xlink" x="0px" y="0px"
	 viewBox="0 0 1024 1024" style="enable-background:new 0 0 1024 1024;" xml:space="preserve">
<style type="text/css">
	.st0{fill:#627A86;}
	.st1{fill:#FFFFFF;}
</style>
<path class="st0" d="M1018.8,512c0,279.9-226.9,506.7-506.8,506.7C232.1,1018.7,5.2,791.9,5.2,512C5.2,232.1,232.1,5.3,512,5.3
	C791.9,5.3,1018.8,232.1,1018.8,512z"/>
<path class="st1" d="M854.1,473.8c0-188.5-153.7-341.9-342.7-341.9c-90,0-174.7,34.4-238.9,97.1c-9.1-3.8-18.6-5.7-28.3-5.7
	c-40.9,0-74.2,33.2-74.2,74c0,19.9,8.1,38.9,22.3,52.8c-12.2,31.2-19.7,63.8-22.3,97.3c0,27.8,22.7,50.4,50.5,50.4
	c12.9,0,25.1-4.9,35.6-14.8l3.5-3.9c12.1-13.2,25.5-25,40.2-35.4c-11.9,22.3-18.2,47.2-18.7,73.2c-0.1,5.3,1.9,10.2,5.6,14.1
	c3.7,3.8,8.7,5.9,14.3,6c10.7,0,19.6-8.8,19.8-19.4c0.6-32.9,13.9-63.6,37.5-86.5c4.3-4.2,8.9-8,13.6-11.4
	c-6.5,10.6-11.7,21.9-15.6,33.8c-13.5,41.3-10,85.4,9.7,124.1c4.8,9.3,17.2,13.4,26.6,8.5c9.7-4.8,13.6-16.8,8.7-26.5
	c-14.9-29.3-17.5-62.7-7.4-93.9c2.9-8.8,6.7-17.1,11.4-25c-0.2,8.3,0.3,16.8,1.7,25.2c5.7,35.7,25.1,67.1,54.5,88.2
	c8.5,6.3,21.5,4.2,27.7-4.4c3.1-4.2,4.4-9.4,3.5-14.6c-0.8-5.2-3.7-9.8-8-12.9c-20.8-15-34.6-37.2-38.6-62.5
	c-3.5-21.7,0.6-43.8,11.5-62.8c134.8,5.6,243.8,118.3,243.8,253.4c0,15.3-1.4,30.7-4.3,46c-15.7-7.3-37.9-14.4-65-14.4
	c-6.7,0-13.6,0.5-20.4,1.4c-18.1,2.3-34.9,9.4-47.1,19.9c-14.5,12.2-21.5,28.5-19.4,44.6c2.4,18.6,16.5,34,37.6,41.5
	c-6.9,21.3-3.4,41.7,9.8,55c13.2,13.2,33.7,16.9,55.3,9.8c7.5,21,23,35.1,41.6,37.5c1.7,0.2,3.6,0.2,5.3,0.2
	c14.5,0,28.4-6.9,39.3-19.6c10.5-12.2,17.6-28.9,19.9-47.2c5.4-42.6-7.3-75.6-17.4-93.9C811.2,666.4,854.1,572.8,854.1,473.8z
	 M229.8,453.1l-2,2.3c-2.1,1.9-4.7,3-7.4,3c-6.2,0-10.8-5.3-10.9-9.3c2.2-27.4,8.1-54.2,17.5-79.9c1.7,0.4,3.5,0.7,5.5,1
	c3.8,0.6,7.6,1,11.6,1c40.9,0,74.2-33.2,74.2-74c0-4.5-0.5-8.8-1.3-13.6c-2-10.9-6.5-21.2-13.2-30.1c34.9-32.9,77-57,122.5-70.2
	v174.5C351,363.2,281.4,396.9,229.8,453.1z M244.1,262.9c6.9,0,13.6,2.1,19.4,6l0.8,0.6c2,1.4,3.8,3.1,6.7,6.5
	c1.2,1.4,2.2,3,3.2,4.8c0.4,0.6,0.7,1.2,1.1,1.9c0.8,1.6,1.3,3.2,1.8,5l0.7,2.1c0.6,2.7,0.9,5.2,0.9,7.5c0,19-15.5,34.5-34.5,34.5
	c-2,0-4-0.3-5.7-0.6l-2.4-0.5c-0.9-0.2-1.7-0.5-2.7-0.9c-2.4-0.8-4.4-1.7-6.2-2.7l-1.5-1.5h-0.9c-9.5-6.5-15-17-15-28.3
	C209.6,278.3,225.1,262.9,244.1,262.9z M675.1,219.5L573.4,385.7c-33.9-16.2-69.9-25.5-107.4-27.9V174.9
	C541.3,163.6,613.8,180,675.1,219.5z M714.4,820.4c-1.3,10.4-5.1,20-10.5,26.3c-3.3,3.7-6.9,5.2-9.9,5.9c-3.7-0.5-9.3-7.5-11.3-19.8
	c0.6-0.3,1.1-0.9,1.5-1.4c12.5-12.3,22.5-26.4,30.1-41.7C715.8,799.7,715.8,810,714.4,820.4z M701.4,503.7l111.1-64.1
	c1.3,11.4,2,22.9,2,34.1c0,73.8-26.2,143.4-74.3,198.3c0.5-7.2,0.9-14.5,0.9-21.6C741.1,598.8,727.3,548.2,701.4,503.7z
	 M679.2,470.8c-20-25.8-44-47.9-71.3-65.7l99.2-161.9c47.7,40.4,82.1,95.1,97.8,155.3L679.2,470.8z M687.1,750.1
	c-3.7,14.4-12.1,34.6-30.9,53.4c-9.1,9-20.5,14.9-29.5,14.9c-2.8,0-5.1-0.6-6.3-1.9c-1.1-1.1-1.8-3.5-1.8-6.3
	c0-7.1,3.9-18.4,14.9-29.4C652.1,762.2,672.4,753.9,687.1,750.1z M605.5,752.8c-0.5,0.4-0.8,1-1.3,1.5c-12.3-1.9-19.4-7.6-19.9-11.3
	c-0.3-2.5,1.9-6.1,5.9-9.6c6.4-5.4,16-9.2,26.5-10.6c5.3-0.7,10.5-0.9,15.4-0.9c5.2,0,10.2,0.3,15.3,1
	C632,730.3,618,740.4,605.5,752.8z"/>
</svg>
